HIERARCHY
ROOT joint_Root
{
	OFFSET 0.0 0.0 0.0
	CHANNELS 6 Xposition Yposition Zposition Zrotation Xrotation Yrotation 
	JOINT Hips
	{
		OFFSET 4.5925 91.4895 -427.239
		CHANNELS 6 Xposition Yposition Zposition Zrotation Xrotation Yrotation 
		JOINT Spine
		{
			OFFSET 15.7357 0.0 0.0
			CHANNELS 6 Xposition Yposition Zposition Zrotation Xrotation Yrotation 
			JOINT Chest
			{
				OFFSET 8.98455 -0.406207 0.0
				CHANNELS 6 Xposition Yposition Zposition Zrotation Xrotation Yrotation 
				JOINT Neck
				{
					OFFSET 16.3773 0.0 0.0
					CHANNELS 6 Xposition Yposition Zposition Zrotation Xrotation Yrotation 
					JOINT Head
					{
						OFFSET 6.45672 0.0 0.0
						CHANNELS 6 Xposition Yposition Zposition Zrotation Xrotation Yrotation 
						End Site
						{
							OFFSET 0.0 0.0 0.0
						}
					}
				}
				JOINT Shoulder_L
				{
					OFFSET 12.9942 -0.242716 4.98039
					CHANNELS 6 Xposition Yposition Zposition Zrotation Xrotation Yrotation 
					JOINT UpperArm_L
					{
						OFFSET 5.34809 0.0 0.0
						CHANNELS 6 Xposition Yposition Zposition Zrotation Xrotation Yrotation 
						JOINT LowerArm_L
						{
							OFFSET 24.3286 1.87007e-05 0.0
							CHANNELS 6 Xposition Yposition Zposition Zrotation Xrotation Yrotation 
							JOINT Hand_L
							{
								OFFSET 22.2916 0.0 0.0
								CHANNELS 6 Xposition Yposition Zposition Zrotation Xrotation Yrotation 
								End Site
								{
									OFFSET 0.0 0.0 0.0
								}
							}
						}
					}
				}
				JOINT Shoulder_R
				{
					OFFSET 12.9945 -0.242716 -4.98039
					CHANNELS 6 Xposition Yposition Zposition Zrotation Xrotation Yrotation 
					JOINT UpperArm_R
					{
						OFFSET -5.34813 0.0 0.0
						CHANNELS 6 Xposition Yposition Zposition Zrotation Xrotation Yrotation 
						JOINT LowerArm_R
						{
							OFFSET -24.3289 0.000322201 0.0
							CHANNELS 6 Xposition Yposition Zposition Zrotation Xrotation Yrotation 
							JOINT Hand_R
							{
								OFFSET -22.2915 -0.000108084 0.0
								CHANNELS 6 Xposition Yposition Zposition Zrotation Xrotation Yrotation 
								End Site
								{
									OFFSET 0.0 0.0 0.0
								}
							}
						}
					}
				}
			}
		}
		JOINT UpperLeg_L
		{
			OFFSET -2.19248 -6.46944 0.0
			CHANNELS 6 Xposition Yposition Zposition Zrotation Xrotation Yrotation 
			JOINT LowerLeg_L
			{
				OFFSET 39.0811 0.0 -1.23785e-05
				CHANNELS 6 Xposition Yposition Zposition Zrotation Xrotation Yrotation 
				JOINT Foot_L
				{
					OFFSET 40.9854 0.0 -1.26872e-05
					CHANNELS 6 Xposition Yposition Zposition Zrotation Xrotation Yrotation 
					JOINT Toes_L
					{
						OFFSET 11.7543 0.0 0.0
						CHANNELS 6 Xposition Yposition Zposition Zrotation Xrotation Yrotation 
						End Site
						{
							OFFSET 0.0 0.0 0.0
						}
					}
				}
			}
		}
		JOINT UpperLeg_R
		{
			OFFSET -2.19251 6.46944 0.0
			CHANNELS 6 Xposition Yposition Zposition Zrotation Xrotation Yrotation 
			JOINT LowerLeg_R
			{
				OFFSET -39.0811 -0.00228153 -0.0401928
				CHANNELS 6 Xposition Yposition Zposition Zrotation Xrotation Yrotation 
				JOINT Foot_R
				{
					OFFSET -40.9854 0.0 0.0
					CHANNELS 6 Xposition Yposition Zposition Zrotation Xrotation Yrotation 
					JOINT Toes_R
					{
						OFFSET -11.7543 0.0 0.0
						CHANNELS 6 Xposition Yposition Zposition Zrotation Xrotation Yrotation 
						End Site
						{
							OFFSET 0.0 0.0 0.0
						}
					}
				}
			}
		}
	}
}
MOTION
Frames:	8
Frame Time:	0.0333333
0.000000 0.000000 0.000000 0.000000 0.000000 -0.000000 -0.872149 80.036700 -4.153310 87.963100 -4.489270 11.098800 15.735700 0.000005 -0.000001 86.612800 80.535000 -86.180300 8.984550 -0.406207 -0.000000 11.136700 -1.097230 0.971575 16.377300 -0.000001 -0.000001 -4.187320 -0.758292 1.138790 6.456720 -0.000001 -0.000000 -7.638190 0.819047 2.448200 12.994200 -0.242716 4.980390 -89.661900 -1.222830 -74.545200 5.348090 -0.000007 -0.000001 -61.823900 4.165430 -17.421900 24.328600 0.000019 0.000005 8.373880 18.011600 -25.458700 22.291600 -0.000001 0.000005 7.945980 5.451280 -4.684880 12.994500 -0.242716 -4.980390 89.535900 2.710820 -80.278900 -5.348130 -0.000001 -0.000004 -56.112800 19.256700 -19.321100 -24.328900 0.000322 -0.000009 -0.184915 -0.730618 -14.111100 -22.291500 -0.000108 -0.000004 10.699700 5.517230 -7.211550 -2.192480 -6.469440 -0.000000 -172.092000 -13.037700 -20.911500 39.081100 -0.000007 -0.000012 -0.451393 0.174773 68.835400 40.985400 -0.000006 -0.000013 2.428800 6.655610 -86.412600 11.754300 -0.000000 0.000003 -0.000386 -0.003207 -16.696000 -2.192510 6.469440 -0.000001 178.333000 12.022200 159.021000 -39.081100 -0.002282 -0.040193 -0.025979 0.011737 68.045200 -40.985400 0.000008 0.000006 6.624030 4.852300 -86.373100 -11.754300 -0.000006 -0.000006 -0.183749 -0.221298 -16.432300
0.000000 0.000000 0.000000 0.000000 0.000000 -0.000000 -0.869478 82.045700 -3.258210 88.321700 -3.616570 11.007100 15.735700 0.000005 -0.000001 84.960100 81.580400 -84.655700 8.984550 -0.406207 -0.000000 9.014250 -1.468210 0.724110 16.377300 -0.000001 -0.000001 -3.041720 -0.834086 1.132140 6.456720 -0.000001 -0.000000 -7.073510 0.823304 2.602000 12.994200 -0.242716 4.980390 -89.193400 -2.824790 -74.057100 5.348090 -0.000007 -0.000001 -57.928500 -8.361250 -19.521200 24.328600 0.000019 0.000005 7.109930 18.044000 -21.931600 22.291600 -0.000001 0.000005 8.680480 5.415390 -3.462300 12.994500 -0.242716 -4.980390 89.785800 1.109880 -79.055300 -5.348130 -0.000001 -0.000004 -50.816600 9.536580 -20.163200 -24.328900 0.000322 -0.000009 -0.276894 -1.591320 -9.859830 -22.291500 -0.000108 -0.000004 9.774700 5.485410 -5.959060 -2.192480 -6.469440 -0.000000 -172.667000 -12.251400 -17.727000 39.081100 -0.000007 -0.000012 -0.411657 0.206433 63.368600 40.985400 -0.000006 -0.000013 2.164920 6.749310 -84.346300 11.754300 -0.000000 0.000003 -0.000348 -0.002943 -16.686600 -2.192510 6.469440 -0.000001 178.014000 11.469300 162.370000 -39.081100 -0.002282 -0.040193 0.017269 -0.007257 62.742900 -40.985400 0.000008 0.000006 6.071250 3.914020 -84.496500 -11.754300 -0.000006 -0.000006 -0.075186 -0.089980 -16.516300
0.000000 0.000000 0.000000 0.000000 0.000000 -0.000000 -0.784703 85.117300 -2.167130 88.978600 -2.839140 10.862300 15.735700 0.000005 -0.000001 82.945500 82.763900 -82.882400 8.984550 -0.406207 -0.000000 6.600070 -1.772500 0.228164 16.377300 -0.000001 -0.000001 -1.595840 -1.109460 1.127130 6.456720 -0.000001 -0.000000 -6.319880 0.555993 2.987290 12.994200 -0.242716 4.980390 -88.603600 -4.731670 -73.537900 5.348090 -0.000007 -0.000001 -51.738700 -19.366800 -23.060300 24.328600 0.000019 0.000005 5.597090 15.695900 -19.911600 22.291600 -0.000001 0.000005 10.129900 5.389180 -2.587730 12.994500 -0.242716 -4.980390 90.158800 -0.710939 -77.438000 -5.348130 -0.000001 -0.000004 -42.839600 -0.518952 -23.004600 -24.328900 0.000322 -0.000009 -0.300997 -2.604300 -6.582500 -22.291500 -0.000108 -0.000004 9.650780 5.471540 -5.425620 -2.192480 -6.469440 -0.000000 -173.491000 -12.122200 -12.478000 39.081100 -0.000007 -0.000012 -0.316221 0.229403 54.041800 40.985400 -0.000006 -0.000013 1.943950 7.254790 -80.508100 11.754300 -0.000000 0.000003 -0.000232 -0.002097 -16.656300 -2.192510 6.469440 -0.000001 177.157000 11.520600 167.559000 -39.081100 -0.002282 -0.040193 0.065972 -0.045812 53.863600 -40.985400 0.000008 0.000006 5.707200 4.005170 -80.760400 -11.754300 -0.000006 -0.000006 -0.000404 -0.006543 -16.839600
0.000000 0.000000 0.000000 0.000000 0.000000 -0.000000 -0.732075 88.196700 -1.116650 89.225100 -2.206890 9.807230 15.735700 0.000005 -0.000001 79.729700 84.223100 -79.746100 8.984550 -0.406207 -0.000000 3.604250 -2.056730 0.032035 16.377300 -0.000001 -0.000001 0.126180 -1.391870 1.103420 6.456720 -0.000001 -0.000000 -5.321850 0.205813 3.293220 12.994200 -0.242716 4.980390 -87.959200 -6.724570 -73.074900 5.348090 -0.000007 -0.000001 -45.270700 -31.084600 -28.424900 24.328600 0.000019 0.000005 4.417560 12.782400 -19.249500 22.291600 -0.000001 0.000005 10.997600 5.383430 -2.405410 12.994500 -0.242716 -4.980390 90.750800 -3.088460 -76.333900 -5.348130 -0.000001 -0.000004 -34.458800 -13.078200 -27.136200 -24.328900 0.000322 -0.000009 -0.336715 -4.200600 -4.577610 -22.291500 -0.000108 -0.000004 9.117030 5.464710 -5.173870 -2.192480 -6.469440 -0.000000 -173.909000 -12.500900 -7.335140 39.081100 -0.000007 -0.000012 -0.188269 0.201606 43.041300 40.985400 -0.000006 -0.000013 1.636960 8.245470 -75.742200 11.754300 -0.000000 0.000003 -0.000134 -0.001318 -16.627800 -2.192510 6.469440 -0.000001 176.579000 12.775900 172.530000 -39.081100 -0.002282 -0.040193 0.043746 -0.042782 43.414000 -40.985400 0.000008 0.000006 5.297700 5.500480 -75.617300 -11.754300 -0.000006 -0.000006 -0.002302 -0.032430 -17.891800
0.000000 0.000000 0.000000 0.000000 0.000000 -0.000000 -0.687189 90.476600 -0.604601 89.326400 -1.891710 6.802780 15.735700 0.000005 -0.000001 73.520200 86.097300 -73.544800 8.984550 -0.406207 -0.000000 -0.281463 -2.211970 -0.054577 16.377300 -0.000001 -0.000001 1.359430 -1.563150 1.227190 6.456720 -0.000001 -0.000000 -4.636640 -0.083836 3.342360 12.994200 -0.242716 4.980390 -87.213200 -9.273980 -73.192100 5.348090 -0.000007 -0.000001 -37.959400 -42.100900 -33.258400 24.328600 0.000019 0.000005 2.174630 5.574610 -21.404900 22.291600 -0.000001 0.000005 12.380500 5.401910 -2.993080 12.994500 -0.242716 -4.980390 91.545900 -6.295520 -76.172200 -5.348130 -0.000001 -0.000004 -27.867500 -28.545400 -31.012600 -24.328900 0.000322 -0.000009 -1.107600 -9.009250 -6.999610 -22.291500 -0.000108 -0.000004 11.475500 5.472480 -5.445730 -2.192480 -6.469440 -0.000000 -174.577000 -13.601800 -5.055920 39.081100 -0.000007 -0.000012 -0.104784 0.161650 32.952100 40.985400 -0.000006 -0.000013 1.266490 9.355510 -70.957500 11.754300 -0.000000 0.000003 -0.000080 -0.000852 -16.610400 -2.192510 6.469440 -0.000001 176.688000 14.785000 174.370000 -39.081100 -0.002282 -0.040193 0.026644 -0.034358 34.201400 -40.985400 0.000008 0.000006 5.045460 7.638620 -70.414200 -11.754300 -0.000006 -0.000006 -0.004020 -0.051652 -18.674200
0.000000 0.000000 0.000000 0.000000 0.000000 -0.000000 -0.631349 91.868500 -0.479336 89.311800 -2.099100 4.022420 15.735700 0.000005 -0.000001 67.672600 87.465000 -67.692600 8.984550 -0.406207 -0.000000 -3.077200 -1.923390 -0.091605 16.377300 -0.000001 -0.000001 1.640870 -1.681380 1.589100 6.456720 -0.000001 -0.000000 -5.072890 -0.365236 3.297660 12.994200 -0.242716 4.980390 -86.226800 -12.689100 -73.288400 5.348090 -0.000007 -0.000001 -28.779900 -51.099000 -34.910800 24.328600 0.000019 0.000005 -0.536264 -1.025070 -27.494000 22.291600 -0.000001 0.000005 14.324200 5.438790 -4.238950 12.994500 -0.242716 -4.980390 92.445500 -10.165300 -76.396500 -5.348130 -0.000001 -0.000004 -22.162700 -43.235600 -32.695500 -24.328900 0.000322 -0.000009 -4.985280 -16.489900 -17.054100 -22.291500 -0.000108 -0.000004 15.657400 5.529920 -7.739440 -2.192480 -6.469440 -0.000000 -175.148000 -14.884500 -3.834090 39.081100 -0.000007 -0.000012 -0.075256 0.160863 25.071500 40.985400 -0.000006 -0.000013 0.867347 10.277900 -67.119300 11.754300 -0.000000 0.000003 0.000188 0.003653 -16.427800 -2.192510 6.469440 -0.000001 177.043000 17.138500 175.065000 -39.081100 -0.002282 -0.040193 0.017939 -0.028455 27.211500 -40.985400 0.000008 0.000006 4.967340 10.409100 -66.718500 -11.754300 -0.000006 -0.000006 -0.004523 -0.056771 -18.882700
0.000000 0.000000 0.000000 0.000000 0.000000 -0.000000 -0.608996 92.576100 -0.508667 89.176300 -2.254320 2.157550 15.735700 0.000005 -0.000001 63.124500 88.211500 -63.068800 8.984550 -0.406207 -0.000000 -4.575490 -1.621620 0.046641 16.377300 -0.000001 -0.000001 1.299000 -1.926930 1.955620 6.456720 -0.000001 -0.000000 -5.703180 -0.162424 2.719200 12.994200 -0.242716 4.980390 -85.193800 -15.374600 -72.406200 5.348090 -0.000007 -0.000001 -12.496400 -56.621200 -29.398100 24.328600 0.000019 0.000005 -0.258695 -0.366879 -35.660300 22.291600 -0.000001 0.000005 15.715100 5.463420 -5.119390 12.994500 -0.242716 -4.980390 93.445700 -13.239100 -75.272800 -5.348130 -0.000001 -0.000004 -10.280900 -51.995000 -29.610500 -24.328900 0.000322 -0.000009 -6.270350 -10.974400 -30.056200 -22.291500 -0.000108 -0.000004 21.029300 5.591350 -10.721100 -2.192480 -6.469440 -0.000000 -175.524000 -15.362700 -3.264660 39.081100 -0.000007 -0.000012 -0.055702 0.152227 20.098400 40.985400 -0.000006 -0.000013 0.485703 10.498900 -64.617100 11.754300 -0.000000 0.000003 0.000330 0.006238 -16.322700 -2.192510 6.469440 -0.000001 177.296000 20.408400 175.620000 -39.081100 -0.002282 -0.040193 0.013290 -0.024178 22.415700 -40.985400 0.000008 0.000006 4.923980 14.013000 -64.580500 -11.754300 -0.000006 -0.000006 -0.004864 -0.060139 -19.019900
0.000000 0.000000 0.000000 0.000000 0.000000 -0.000000 -0.714329 92.814900 -0.472528 89.098800 -2.118840 1.327580 15.735700 0.000005 -0.000001 58.660200 88.506100 -58.563100 8.984550 -0.406207 -0.000000 -5.213920 -1.563210 0.123213 16.377300 -0.000001 -0.000001 0.771922 -2.119980 2.252730 6.456720 -0.000001 -0.000000 -5.907560 -0.100524 2.379000 12.994200 -0.242716 4.980390 -83.663200 -16.808900 -68.994400 5.348090 -0.000007 -0.000001 -1.033030 -62.710500 -27.301000 24.328600 0.000019 0.000005 0.379534 0.434952 -41.111900 22.291600 -0.000001 0.000005 15.742200 5.480090 -5.752560 12.994500 -0.242716 -4.980390 94.836900 -14.503800 -71.332800 -5.348130 -0.000001 -0.000004 1.377610 -57.368600 -28.568600 -24.328900 0.000322 -0.000009 -9.267090 -11.601400 -39.035500 -22.291500 -0.000108 -0.000004 22.256900 5.619080 -12.566600 -2.192480 -6.469440 -0.000000 -175.555000 -15.700000 -3.075890 39.081100 -0.000007 -0.000012 -0.045735 0.140350 18.048800 40.985400 -0.000006 -0.000013 0.291294 10.978400 -63.504200 11.754300 -0.000000 0.000003 -0.000041 -0.000474 -16.596000 -2.192510 6.469440 -0.000001 177.381000 23.522900 176.375000 -39.081100 -0.002282 -0.040193 0.010100 -0.019028 19.605900 -40.985400 0.000008 0.000006 5.102680 16.962100 -63.843200 -11.754300 -0.000006 -0.000006 -0.005378 -0.065077 -19.221200
